<?xml version="1.0" encoding="utf-8"?>
<!-- Generator: Adobe Illustrator 19.1.0, SVG Export Plug-In . SVG Version: 6.00 Build 0)  -->
<svg version="1.1" id="Warstwa_1" xmlns="http://www.w3.org/2000/svg" xmlns:xlink="http://www.w3.org/1999/xlink" x="0px" y="0px"
	 viewBox="0 0 70 70" style="enable-background:new 0 0 70 70;" xml:space="preserve">
<style type="text/css">
	.st0{fill:#FFFFFF;}
</style>
<g>
	<path d="M33.4,65.4c0,0-32-19.9-33.3-37.9c0,0-2.5-15,13.7-22.9c0,0,8.6-4.1,15.2,0.7c6.6,4.8,4.8,3.7,5.9,3.5
		c1-0.2,8.1-5.8,17-5.1C57.6,4.1,70.3,6.8,70,26.4c0,0,0,12.4-17,26.7c-17,14.3-17,13-17.6,13.2C34.7,66.4,33.4,65.4,33.4,65.4z"/>
	<g>
		<path class="st0" d="M47.8,46l-0.2-6.4l-0.2-13.1l-3.6,14.4L39.6,32L36,42.8l-3.5-7.7l-0.9-1.9c-1.8,2.7-2.1,2.7-2.5,2.7l-0.4,0
			l-0.2-0.3c-0.2-0.3-0.7-1.9-1-3.2l-2.7,1.8l-0.9-5.5l-4.5,16l-1.3,0L17,39.1L15.7,42l-1.3-0.3l-0.1-12.6l-3.8,6.2l-7.4,0.1l0-1.3
			L9.8,34l5.8-9.6l0.1,14.2l1.7-3.9l1.4,7l4.5-16.3l1.3,0.1l1.1,6.4l2.5-1.7l0.3,0.9c0.3,1,0.6,2.2,0.9,2.9c0.5-0.6,1.2-1.6,1.7-2.5
			l0.6-1l2,4l2.1,4.6l3.6-10.7l4.1,8.4L47.4,21l1.3,0.2l0.2,18.4l0,1.4l4.3-8.2l0.6,0.8c0.3,0.4,0.7,0.9,1,1.3c0.5-0.3,1.3-1,2-1.6
			l0.2-0.2h11.6v1.3H57.6c-2.4,2.1-2.7,2-3.1,2l-0.3-0.1L54,36c0-0.1-0.3-0.4-0.5-0.8L47.8,46z"/>
	</g>
</g>
</svg>
