<?xml version="1.0" encoding="utf-8"?>
<!-- Generator: Adobe Illustrator 19.0.1, SVG Export Plug-In . SVG Version: 6.00 Build 0)  -->
<svg version="1.1" id="Warstwa_1" xmlns="http://www.w3.org/2000/svg" xmlns:xlink="http://www.w3.org/1999/xlink" x="0px" y="0px"
	 viewBox="0 0 70 70" style="enable-background:new 0 0 70 70;" xml:space="preserve">
<style type="text/css">
	.st0{fill-rule:evenodd;clip-rule:evenodd;}
</style>
<path class="st0" d="M40.1,26.4c5.8-5,12.4-6.1,19.4-2.9c7,3.1,9.4,9.4,9.8,16.2c0.5,7.4,0.3,14.9,0.6,22.4c0.2,3.8-1.3,5.4-5.1,5.3
	c-1.9-0.1-3.8,0-5.7,0.1c-3.8,0.3-5.3-1.2-5.2-5l-0.4-18.7c-0.2-4.5-1-9.3-7.1-9.1c-6,0.2-7.3,4.7-7.2,9.8
	c0.2,7.4,0.3,14.9,0.5,23.3c-4.6,0.1-8.5,0.5-12.4,0.1c-1.4-0.2-3.5-2.4-3.5-3.8l-0.8-36.7c0-1.1,0.4-2.6,1.1-3.3
	C26.7,21.7,37.7,23.5,40.1,26.4z"/>
<path class="st0" d="M16.5,62.3c0.2,4-1.3,5.4-5.4,5.6c-10.5,0.3-10.5,0.3-10.6-10L0.4,28.6c0-6.7,4.4-5.7,8.5-5.8
	c4.2-0.1,7.7-0.4,7.6,5.8L16.5,62.3z"/>
<path class="st0" d="M17.5,10c0.1,4.5-3.7,8.1-8.5,8.2c-5.1,0.2-9.1-3.5-9-8.3C0.1,5.5,3.9,2,8.8,2C13.5,2,17.4,5.6,17.5,10z"/>
</svg>
