<svg xmlns="http://www.w3.org/2000/svg" xmlns:xlink="http://www.w3.org/1999/xlink" version="1.1" x="0px" y="0px" viewBox="0 0 672 144" xml:space="preserve"><g><path fill="#48484A" d="M125.2 142.8L125.2 142.8c-2.7 0-5.1-0.5-7.3-1.4c-0.2-0.1-4.9-2.1-8.9-7.5c-1.6-1.1-4.1-1.9-6.5-2.8 c-2.5-0.9-5.2-1.8-6.9-3c-11.5 4-21.4 4.1-28.4 0.1c-0.9-0.4-1.9-1-2.9-1.5c-2.9-1.6-5.6-3.1-9-3.1c-0.4 0-0.8 0-1.2 0.1l-0.1 0 l-0.1 0c-4.6-1.6-7.4-6.2-8.2-10.3c-0.3 0.1-0.7 0.3-1 0.4c-3.9 1.7-8 3.5-12.8 3.3c-3-0.2-5.9-0.7-8.8-1.1 c-2.6-0.4-5.2-0.8-7.8-1.1l-0.1 0l-0.1 0c-6.2-3.1-8.2-9.3-10-14.9c-0.2-0.6-0.4-1.2-0.6-1.8l0-0.1c0-0.6-0.1-1.1-0.2-1.7 c-0.3-1.9-0.6-3.9 0.1-5.8c-1.8-2.9-2-6.1-2.3-9.3c-0.2-2.3-0.3-4.7-1.1-6.9l0-0.1c-0.7-5.7 1.4-11.3 6.4-16.5 c0.6-4.7 1.8-10.7 6.3-15.6c0.6-4.9 3.6-8.2 6.7-11.7c1-1.1 2.1-2.3 3.1-3.6c1-1.2 2.4-1.9 3.7-2.5c1.7-0.8 3.2-1.5 3.8-3.3l0-0.1 l0.1-0.1c6.5-6.7 14.8-9.3 22.7-11.9c4.2-1.4 8.6-2.8 12.6-4.8l0.1 0c2.7-0.9 5.6-1 8.5-1.2c3.2-0.1 6.3-0.3 8.9-1.5l0.1 0 c2-0.5 4.2-0.7 6.6-0.7c2.8 0 5.6 0.3 8.3 0.6c2.6 0.3 5.3 0.6 7.9 0.6c0.6-0.1 1.3-0.1 2-0.1c6 0 11.2 2.5 16 5 c4.3 0.3 8 2.3 11.5 4.2c2 1.1 4.2 2.2 6.4 3c6 1.9 12.7 4.3 15.6 10.2c7.4 4.4 12.7 10.5 15.1 17.2c5.2 4 10.9 8.9 12.5 15.4 c7.4 6.8 5.4 18.7 3.7 28.2c-0.2 1.1-0.4 2.2-0.5 3.3l0 0.1c-1.8 5.7-5.4 13.3-12.7 17.1c-5.3 2.5-7.9 5.8-10.9 9.6 c-0.9 1.1-1.9 2.3-2.9 3.5c-1.7 9.2-10.1 14.3-16.9 18.5l-0.2 0.1C139.9 139.7 132.3 142.8 125.2 142.8z M95.8 126.9l0.3 0.2 c1.6 1.2 4.2 2.1 6.8 3c2.5 0.9 5.1 1.8 6.9 3l0.1 0.1c3.9 5.2 8.4 7.1 8.5 7.2c2 0.8 4.3 1.3 6.8 1.3c6.8 0 14.3-3.1 19.3-5.4 l0.2-0.1c6.6-4.1 14.9-9.1 16.4-17.8l0-0.2l0.1-0.1c1.1-1.2 2.1-2.4 3-3.6c3-3.7 5.8-7.3 11.3-9.9c6.9-3.5 10.4-10.8 12.1-16.3 c0.2-1 0.3-2.1 0.5-3.2c1.6-9.3 3.5-20.9-3.5-27.3l-0.1-0.1l0-0.2c-1.5-6.3-7.1-11-12.2-15l-0.1-0.1l-0.1-0.2 c-2.3-6.5-7.5-12.5-14.8-16.8l-0.2-0.1l-0.1-0.2c-2.6-5.5-9.1-7.9-14.9-9.7c-2.3-0.8-4.5-2-6.6-3.1c-3.6-1.9-7-3.8-11.1-4l-0.1 0 l-0.1-0.1c-4.7-2.5-9.7-4.9-15.5-4.9c-0.7 0-1.3 0-2 0.1c0 0 0 0 0 0c-2.7 0-5.4-0.3-8-0.6c-2.7-0.3-5.4-0.6-8.1-0.6 c-2.3 0-4.3 0.2-6.2 0.7c-2.9 1.3-6.2 1.5-9.4 1.6c-2.7 0.1-5.6 0.2-8.1 1.1c-4.1 2-8.5 3.4-12.8 4.8c-7.8 2.5-15.9 5.1-22.2 11.5 c-0.8 2.2-2.6 3.1-4.4 3.9c-1.2 0.6-2.4 1.1-3.3 2.1c-1 1.3-2.1 2.5-3.2 3.6c-3.1 3.4-6 6.6-6.5 11.2l0 0.2L14.6 43 C10.2 47.7 9 53.6 8.5 58.2l0 0.2l-0.1 0.1c-4.7 5-6.8 10.3-6.2 15.6c0.8 2.3 1 4.8 1.2 7.2c0.2 3.3 0.4 6.3 2.2 9l0.2 0.3 l-0.1 0.3c-0.7 1.6-0.4 3.6-0.2 5.5c0.1 0.6 0.2 1.1 0.2 1.7c0.2 0.6 0.4 1.2 0.6 1.8c1.8 5.5 3.7 11.2 9.3 14.1 c2.7 0.2 5.3 0.7 7.8 1.1c2.8 0.4 5.7 0.9 8.7 1.1c0.2 0 0.4 0 0.7 0c4.2 0 7.8-1.6 11.6-3.2c0.5-0.2 1-0.4 1.4-0.6l0.4-0.2 l0.8 0.8l0 0.2c0.7 3.7 3.2 8.1 7.3 9.6c0.4 0 0.8-0.1 1.2-0.1c3.7 0 6.7 1.6 9.6 3.2c0.9 0.5 1.9 1 2.8 1.5 c6.8 3.9 16.4 3.7 27.7-0.3L95.8 126.9z"/><g><defs><rect id="SVGID_1_" x="-8.5" y="-5.2" width="105.2" height="160.1"/></defs><clipPath id="SVGID_2_"><use xlink:href="#SVGID_1_" overflow="visible"/></clipPath><path clip-path="url(#SVGID_2_)" fill="#48484A" d="M110.4 98.9c1.4 1.4 3.1 2.1 4.9 2.4c0.5 0 1.1 0.5 1.1 1 c-7 3.8-14.8 6-22.9 6.7c-3.5 0.9-6.5-1.4-9-2.8c0.1 1.1 1.3 1.6 1.7 2.6c-2.8 2.1-6.9 1.6-10.2 2.1c2.8 0.5 6.1-0.3 9 0l0.4 0.7 c-1.1 1.9-0.9 4.3-0.9 6.6l-0.5 0.5c-3.2 0.2-6.8 0.6-9.2-1.5c-0.7-0.6-0.1-1.6 0.1-2.2c-2.8 2-6.5 1.7-10 1.7 c-2.3-0.9-4.8-2.1-5.8-4.6c-0.9-3.8 0.4-7.5 3.6-10.1c7.2-4.7 15.1-8.6 22.2-13.4c2.8-1.8 6.9-3.8 10.2-1.6 c1.3 2.8 3.2 6.2 5.3 7.8c-0.6-2.1-2.6-4-2.1-6.5c3.6-2.9 9.2-0.8 13.8-1.2c10.5 0 19-5.3 27.9-9.2c2.8 1.2 6.7 0.2 9.2 2.2 c0-0.4 0.1-0.8-0.4-1c-1.8-2.1-5.4-0.2-6.8-2.3c1.4-1.6 2.1-3.8 1.6-6.1h-0.6c-0.3 1.8-0.6 3.5-1.7 5c-8.9 4.5-17.8 9.9-28.6 9.4 l-0.4-0.7c2.7-3.1 4.4-7.2 5.8-10.6c-3.5 3.6-4 8.7-8.7 11.3c-7 0.7-13.6-1.4-20.7-0.2c-0.6-0.1-0.8-0.7-0.9-1.2 c1.1-2.8 3.9-5.8 6.5-7c-1.9-0.4-2.8 2-4.4 2.2c-0.8-0.6-0.5-1.7-1.3-2.1c0.1 2.1-0.2 4-1.1 5.7c-7.8 10.3-20 12.4-29 21.1 c-1.4 1.3-1.6 3.8-4 3.3c-0.7-0.2-1.1-1.6-1.9-1.1c0.6 1.7 2.6 1.6 4 2.3c-0.1 3.6 1.6 6.7 4.8 8.7c4.2 2.6 9.3-0.9 12.9 2.2 c1.8 0.6 3.8 0.9 5.5 1.7c1.1 0.9-0.6 1.6-0.5 2.6c2.1-0.6 2.9-4 5.6-3.4c3.1 1.3 6.5 2.3 9.9 2.1c-3.1 0-5.7-1.1-8-2.9l-1-4.3 c0.1-1.8 1.1-3.2 2.2-4.6c8.5 0.9 16.7-0.9 24.1-3.7c4.3-0.9 7.7-5.5 12.8-3.4l7.8 6c-1.3-2.1-3-4.1-5-6l0.4-0.4 c3 0 5.5-0.9 8-2.1C127.5 101.6 117.8 101.3 110.4 98.9z"/><path clip-path="url(#SVGID_2_)" fill="#48484A" d="M105.8 51.7c5 2.6 7.3 7.4 7.5 10.1l0.2-2.2c0.6-2 2.1 0.1 3.4-0.2 c0.2 0 0.5-0.2 0.5-0.5c-4.6-1-6.7-6.7-11.4-7.7L105.8 51.7z"/><path clip-path="url(#SVGID_2_)" fill="#48484A" d="M160 84.4l-0.5 0.5c-0.3 3.2-3.3 5.2-4.1 7.9c1.9-1.1 3-3.1 5.3-3.4 c2.8-1.1 5.8 0.5 8.2 0.5c-2.1-1.8-4.5-2.9-7.5-2.4C160.1 86.9 160.2 85.6 160 84.4z"/><path clip-path="url(#SVGID_2_)" fill="#48484A" d="M181.3 57.3c-1.4-6.3-6.8-11.1-12.2-15.4c-2.5-7.3-8.2-13.2-14.7-17.2 c-2.7-5.9-9.4-8.3-15-10.1c-5.9-2.1-10.8-6.8-17.5-7.2c-5.3-2.9-10.9-5.6-17.5-4.9c-7.2 0-14.7-2.4-22.1-0.5 c-5.1 2.4-11.6 0.8-17.1 2.7c-11.4 5.8-24.9 6.5-34.5 16.6c-1.2 3.6-5.2 3.4-7.4 6c-3.9 5.1-8.9 8.8-9.6 15.2 C9.6 47 8.2 52.4 7.5 58.2c-4.1 4.4-7 9.8-6.2 16.3C3.3 79.8 1.5 86 4.8 90.8c-1 2.4-0.2 5.1 0 7.6c2 6.1 3.6 13.1 10.1 16.4 c5.5 0.5 10.7 1.8 16.3 2.2c5.1 0.2 9.3-2 13.7-3.9l0.4 0.4c0.7 4.1 3.4 8.6 7.7 10.1c5.2-0.6 9 2.6 13.1 4.6 c8.3 4.9 19.2 2.8 27.6-0.3c1.4-0.3 10.6 2.4 14 4.8c3.9 5.4 8.1 8.6 8.1 8.6c8 3.4 18.4-0.5 26.1-4.1c6.7-4.2 15-9.3 16.6-18.4 c4.5-5.2 6.9-10 13.9-13.4c6.6-3.4 10.3-10.3 12.2-16.8C185.9 78.6 189.3 64.7 181.3 57.3z M174.3 49.8l3.2 6.8l0.2 1.2 c-4.3-0.6-5.3-5.6-7.9-8.4l-5.1-5.1C168.6 44.4 172.2 46.5 174.3 49.8z M163.7 66.4c4.3 1.6 3.6 7 4.6 10.9 c0.7 1.8-1.2 2.2-2.4 2.2c-0.9-0.1-1.8 0.1-2.6 0.6v0.3c4.6-0.5 8.7 2.3 10.6 6.2c0.1 3.5 0 6.9-1.9 9.5c-5 5.4-13.7 2.1-19.9 1.6 l-6.8 0.6l-0.7-4.5c5-1.2 8.4-5.9 9.5-10.8c1-7.1-2-14.5 0-21.4c4.3-3.2 8.9-7.2 11.4-11.9c1.9-0.1 2.8 1.8 3.9 3.1 c3 3.7 1.8 8.6-0.3 12.3c-1.1 1.7-3.1 1.8-4.6 1c-0.9-0.5-1.1-1.8-2.2-2C161.9 64.8 163.2 65.5 163.7 66.4z M159 30.9 c3.8 3.3 6.4 7.7 8.2 12.3c-4.6 0.3-4.8-5.3-7.7-7.7c-2.1-2.3-5-5.1-7.5-7C154.3 27.3 156.7 29.8 159 30.9z M136.9 16.7 c5.3 0.2 9.7 2.7 13.5 6.5c0.4 1 1.2 2.1 0.6 3.3c-0.6 0.7-1.6 0.9-2.3 0.5c-2.1-5-7.5-7.4-11.8-9.7V16.7z M135.2 25.1 c-4.3-2.5-8.7-4.5-13.8-5.1c-0.8-0.5-0.4-1.5-0.6-2.2c3.3 0.1 5.9-2.5 9.2-1.1c4 1.5 8 3 11.6 5.5c1.9 1.6 4.7 3.5 4.3 6.3 C142.5 27.1 137.3 29.6 135.2 25.1z M134.7 28.3c-3.1-0.9-5.3 3.3-7.9 0.2c-6.7-1.4-13.4 1.6-17.7 6.5c-2.1-1.1-4.1-3.5-4.3-6 c2.4-4.1 7.5-4.9 11.4-6.8c6.8-2.2 13.1 1.3 18.5 4.6C135.2 27.3 135.9 28.4 134.7 28.3z M132.5 13.8c1.1-0.1 1.9 0.9 2.8 1.4 c-1.4 1.6-3.4-0.2-5.1-0.4c-2.6-1.1-5.8-2.3-7.1-5C126.6 10.6 129.8 11.8 132.5 13.8z M118.3 7.6v0.5c-6.8-0.1-14.1-1.5-20.2-2.4 C104.6 3.3 112.2 5.4 118.3 7.6z M82.5 4.5C87.4 3 93.1 2.9 98.2 4C95.5 7.1 91 4.4 87.5 5.7l-4.8 1.1C82.2 6.2 82.3 5.1 82.5 4.5 z M88.7 7.9c3.8 0.1 7.8-0.2 11.2 0.9c0.9 1.4 0.5 3.8 0.4 5.7c-8.2 0.3-13.5 6.7-14.6 13.2c-1.5 4.2 0.7 10-3.9 12.9 c-2.9 3.2-4.7 6.3-6.6 9.8c-1-0.4-2.3-1.3-2.7-2.5l-0.9-2.2c-0.4 2.1 1.7 6.6 2.3 8.5c0.8 2.6 1.3 8.8 2.8 17.9 c0.8-1.8 0.7-5.2 0.7-6.6c0.4 1.5 2 1.9 2.9 3.2C78.8 64 75 58.2 76.2 53.5c2.1-5.3 5.7-11.5 11.2-14.3c2.6-0.1 4.3 1.7 6.7 2.1 c-1.1-3.2-5.9-1.8-6.3-5.8c-0.6-6.3 1-11.9 5.3-16c3.7-2.9 9.5-4.6 14.4-4.7c-1.6-0.3-3.7 0.1-4.3-1.7c0.1-1.6-0.4-2.8 0.5-4 c4.9-0.1 9.7 1.9 14.8 1.2c3.1 0.4 4.9 3.1 7.3 4.5c-2.1 0.4-3.8 2.1-6.1 1.2c-2.3-1.4-3.9-4.4-6.8-3.2c1.8 0.5 3.4 1.4 4.4 3.2 c0.1 1.1 0.6 2-0.1 2.9c-4.5 3.1-9.8 4.2-14 8c-1.7 0.5-2.1-1.4-2.6-2.4c-0.2-0.7-0.2-1.7-0.7-2.2c-0.6 1.4 0.3 3.1 0.5 4.6 c3.2 5.3 8.1 10.7 5.7 17.5c-2.3 3.6-6.3 5.8-9.2 8.9c0.9-0.4 2.4-0.3 2.6 1.2c-0.1 3.9 2 7 1.8 10.9c-3.6 1.6-7.5 2.3-11.1 3.9 c-4.1 2.3-8.5 4.1-12.8 6c-2.3-0.1-2.6-3-3.6-4.5c-0.5-1.6-1-3.1-1.6-4.6c-0.4 1.1 0 2.6 0.4 3.8c0.7 2.6 2.2 5.1 1.3 8.2 c-0.8 1.3-2.5 1.1-3.7 0.9c-9.6-6.9-3.3-20.5-3.4-30.2c0.9-2.8 0.6-6.1 2.8-8.4c1.9-1.2 4-2.2 5.7-3.7l-0.4-0.4 c-1.6 0.9-3.3 1.3-5 2.1c0.7-8.5 4.9-16.8 12.3-21.9c1.7-0.6 3.3-1.5 5.1-1.8l-0.7-0.4c-2.1 0.6-4.6 0.4-6.6 1.4 c-0.7-0.9-0.1-2 0.1-2.8C82.1 9.8 85.2 7.7 88.7 7.9z M57 62.6c0.1 0.8-0.3 1.4-0.6 2.1c-0.7-0.5-1.3-1.9-2.1-1.9 c3.3 4.5 1.6 11.1 5 15.7c0.7 2.3 3.3 3.8 3.4 6.3c-4 3.6-7.6 8.9-13.5 7.3c-2.6-0.7-4.7-2.2-7.2-3.1c-4.7-0.4-9.2-1.4-12.1-5.8 c-0.3-2.1-0.5-4.8 1.5-6.1c0.5 0.3 0.5 0.9 1.1 1c-0.4-2.1-1-5.6 1.2-7.3c4 0.6 9.4-2.2 12.1 1.7c0.5 0.2 0.5-0.4 0.7-0.5 c-1.2-6.1-0.1-12.9 4.9-16.7c3.6-2.1 8.5-5.5 12.1-1.9c1.1 8.6-2.3 19 4.9 25.8c0.9 1.8-1.2 2.4-2.2 3.1c-0.7 0-1.4 0.6-2.1 0.1 c-5.4-6-8.9-14.9-5.5-22.5C57.4 60.2 57.8 61.8 57 62.6z M79.1 5.7C79.8 6 80 6.3 80.3 6.9v0.9c-1.8 0.5-3.4-0.4-5.1-0.5 c-5.5 0.1-9.9 3.4-14.8 5.1C63.7 5.2 72 5.3 79.1 5.7z M35.9 20.4c6.5-4.9 13.9-7.7 21.4-10.2h2.1c-0.6 3-3.8 3.1-6 4.5l-7.5 3.8 c-0.4-1 0.6-2.1 1.2-3.1c-2.7 0.3-3.1 4.1-5.5 5c-3.4 0.8-6.3 2.9-9.4 4.8C32 23.1 34.3 21.6 35.9 20.4z M38.1 24.1 c8.7-3.5 16.8-8.5 26.4-9.9c3.7-3.3 7.3-5.7 12.8-4.6c0.4 0.4 0.9 0.4 1.4 0.6c0.6 1-0.3 1.8-0.9 2.6c-1.6 1.9-3.5-0.9-5.6 0.3 c0.9 1.6 3.9 0.2 4.3 2.6c0.1 1.8-0.8 3.2-2.1 4.5c-1.2 0.1-2.1-0.6-3.2-0.9c-4.8-0.6-9.1 0.9-13.4 1.8c-2.6 0.1-5.1 0.4-7.3 1.4 c-0.1-1.1 1.1-2.3 1.9-3.4l-0.2-0.1c-3.3 1.3-3.6 5.7-7.5 6c-4 3.6-8.4 6-12.8 8.5c-4 2.6-6.8 6.5-7 11.1c-0.3 0.3-0.6 0.7-1 0.5 c-0.8-2.1 0-4.4 0-6.6C25.9 31.7 32.4 27.5 38.1 24.1z M29.7 25.3h0.7v1.1c-3.5 4.5-8.2 7.3-12.3 11.4 C20.5 32.6 25.4 29 29.7 25.3z M16.9 43.9c0.9-2.6 2.8-5.4 5.3-6.5c0.6 0.8-0.3 1.5-0.5 2.2c-1 2.3 1.6 6.6-2.3 7.2 c-1.1 0.1-1.7 1.5-2.7 2C16.1 47.3 16.6 45.4 16.9 43.9z M18.6 49.8c3.1-2.6 7.3-5 11.1-3.3c3.6 1.9 6.5 5.6 11.1 5.1 c-0.1 2.4-1.3 5.9 0.4 8.2c-0.9-6 4.7-9.9 3.3-15.8c-0.1-0.1-0.2-0.2-0.4-0.1c-0.2 2.2-0.9 4.3-1.8 6.1c-2.3 0.9-5.7 0.2-7.7-1.5 c-1.6-1.3-2.3-3.2-1.7-5.1c1.1-3.1 4.4-4 6.6-6c5.3-5 12.1-7.2 19.6-7.4c1.2 0.4 2.4 1.1 3.3 2.1c0.1-0.9-0.7-2-0.2-3.1 c1.6-0.6 3.3-1.8 4.1-3.3c-1.7 0.4-3.3 2.1-5.1 2.6c-9.4-0.2-17.9 2.7-24.2 9.4c-2.9 0.6-5.8 3.5-6.5 6.5v0.5L27 44.2 c-0.6-2.6 1.6-4.5 2.6-6.7c4.2-3.5 8.4-6.5 14-7.2c0.1-1-1.1-0.2-1.6-0.6c1.6-3.2 5.3-3.8 8-5.7c3.4-0.8 7.3-2.1 10.9-0.9 c0.5-0.2 0.4-0.9 0.1-1.1c3.8-0.6 8.3-3 11.9-0.4c0.3 2.4-1.8 3.8-2.2 6c-2.8 7.1-5 14.4-6.3 22.2c-0.7 1.3-2.5 1.1-3.8 0.9 c-2.8-1.6-3.3-5.3-5.6-7.7c-2.6-2.1-3.1-5-3.3-8c-1.4 1.1-1.1 3.3-0.9 5c-1.6 0.1-4-0.2-5.3 1.3c2.2 0.4 5.6-0.9 7 1.5 c1.8 2.3 3.6 4.5 3.8 7.4c-2.5 2.1-5.9 3.1-8.3 5.8c-3 3.4-3.8 7.7-4.3 12.1c-1.4 1.3-4 0.9-5.5 1c-2.8-0.1-6-0.4-8.5-1.8 c0.4 0.8 1.7 1.6 2.6 2.3c-3.2 2.5-0.6 7.5-4.5 9.6c-4.7 0.1-9.8-1.5-12.1-6c0.1-2.6-0.6-6.2 2.6-7.4c1.6-0.1 0.5 2.1 1.6 2.8 c0.3 0.5 0.6 1 1 1.5c0.3-3.3-0.7-6.2 0.9-9.2c1.4-1.1 2.8-2.3 4.8-2.1c1.7 0.6 3.3 2 5 1.8c-4-2.3-8.5-6-7.9-11.4 c-2.8 3.2 3.8 9-2.8 10c-1.2 0.3-2.8 0.9-4 0.2C15.1 56.4 16.6 52.4 18.6 49.8z M14.4 68.1c-0.5 1.3-0.1 3.4-1.7 4 c-1.7 0.4-3.3 1.3-4.9 1.9c-0.9-3.7 0.6-7.2 2.7-10.1c2.6-1.3 5.3-3.5 8.9-2.4v2.8C17.5 65 15.4 66.2 14.4 68.1z M12.2 49.1 c0.8-1.3 1.1-3.1 2.9-3.6c-1.6 3.6 1.1 7.2-1 10.7c0.1 1 0.1 2.6 0.9 3.6c-1.5 0.4-3 0.4-4.1 1.6C8.8 57.5 11 53 12.2 49.1z M4.4 77.7c-1.6-5.9-0.4-12.4 3.6-16.8c1.3-0.2 0.2 1.4 1.1 1.8C6 66.5 5.6 71.4 5.7 76L4.4 77.7z M6.4 88 c-2.3-2.3-1.5-6.6-0.2-9.2c2.1-3 5.2-4 8.2-5c0.6 0.6 0.7 1.3 0.9 2.1c-3.6 2.2-6.5 6.2-6.3 10.7C8.3 87.5 7.5 88.1 6.4 88z M20.9 105.4c-2.1 0.1-3.8-2.6-6-2.6c2.9 1.8 5.5 4.5 9 5c1.8 1.6 4.3 1.7 6.5 2.6c0.4 1.4-2.8 1.3-1.6 2.3c1.8 0 2.6-1.8 4.1-2.6 c4.8 0.3 8.5-2.3 12.9-3.1c1.6 0.6 0 1.8-0.1 2.8c-6.4 4.8-15.1 5.2-23 3.6c-4.7 0.2-9.5-1.6-11.9-6.1C8.6 101.6 4.1 93 9.8 88 h0.5c0.7 2.1 2.5 4.3 4.6 5c-2.3-3.1-5.1-6.9-3.3-11.2c1.3-1.8 2.7-4.5 5.1-5l2.9 2.2c2.7 0.7 5 2.1 8 2.1 c-0.3 2.1-3.4 3.3-3.4 5.6c-2 0.4-3.6-1.6-4.8-3.1c-0.5 0.5 0.2 0.9 0.2 1.3l4.8 4.5c0.8 4.6 3.8 9.4 8.4 11.4 c-4.6-4-8.1-9.7-6.3-16c0.4-0.6 1-1.1 1.5-1.7c3.4 4.1 8.5 7.2 14.2 7.2c1.8 1.1 4.1 1.5 5.4 3.2c-3.2 0.8-6.9 2-10.2 1.1 c4.3 2 8.9 0.6 13.4-0.2c1.1 0.4 0.6 1.9 0.5 2.8c-3.1 7.2-10.7 11.1-18.1 11.9c-5.8 0.1-10.3-2.8-13.9-6.8 c-0.6-1.3-0.9-2.9-2.3-3.8l-0.3 0.4C18 101 18.5 103.6 20.9 105.4z M169.7 104.4c-2.6 1.1-5.2 2.1-8.4 1.7c-1.3-0.5-0.2-1.6 0-2.2 c0.4-0.2 0.4-0.6 0.5-0.9c-3.8 2.6-8.1 4.8-12.8 5.8c-4.7 0.9-10 1.3-14.6 1.3c-3.6 2.2-7.1 4.8-11.2 5.7 c-7 4.5-16.8 5.1-24.7 2.7c-0.9 0.2-0.8 0.2-1.5 0.7c1.8 0.7 3.9-0.2 5.5 1.7c-0.4 1.3-2.1 2.2-3.2 2.8 c-5.3 2.1-12.4 4.8-17.9 1.7c0.9 1.1 2.3 1.4 3.7 1.7c0.3 1.1-1 0.7-1.5 1.1c-9 2.3-17.4-1.1-24.2-6.3c-3.4 0.1-6.7-0.3-8.9-3.1 c-2.6-2.3-2.7-5.6-2.6-9c2.8-8.2 6-17.3 14.7-21.5c11.7-7.5 23.8-14.2 36.8-18.5c3.1-0.4 6.7-2.5 9.7-0.2 c4.4 2.3 8.9 0.1 13.4-0.4c2.1 0.4 4.5 0.1 6.5 0.2c-2.7-0.4-4.8-2-7.7-1.9l-0.4-0.3l2.3-14.3c2.6-2.8 6.2-2.7 9.4-1.4 c1.3 0.9 2.9 1.8 2.9 3.6c-1.9-0.2-4.8-1.1-6.8 0.2c1.5 0.5 3.3 0.3 4.8 0.9c3.3 1.6 4.9 5 6.3 8c0.7-0.9 0.1-2 0-3.1 c-3.6-2.6-1.1-7.8-5.3-10.2c-3.2-2.5-8-2.1-11.6-0.6c-0.4-4-1.2-7.8-3.3-11.1l-0.4 0.3c3.3 7.9 1.8 18.5-0.1 26.4 c-0.3 1-1.3 1.5-2.1 1.9c-5.3-0.1-11.9 0.1-14.1-5.5c-0.9-3.2-1.6-6.5-2.1-9.9c-0.1-1 1.1-1.4 1.8-1.9c4.6-3.3 6.7-8.2 7.4-13.4 c3.4-5.3 9.9-7.7 16.3-6.3c1.6 0.2 2.3 1.9 2.7 3.3c1.6 3.3 3.1 6.6 4 10.2l0.3-0.4c-0.5-4.1-2.2-7.8-3.2-11.8 c3.7-3 9.8-2.1 14.3-1.3c1.4 2.4 0.2 5.5 0.4 8.2c-0.4 3.2-2.7 5.5-3.8 8.4c1.5-1.2 3-3.4 4-5.3c-0.1 2.1-1.2 4.5-1.7 6.7 c1.1-0.6 1.8-2.6 2.3-3.9c1.1-4.5 2.8-9.2 1.9-14c0.5-1.6 2.3-0.5 3.4-0.5c3.3 1.6 5.2 4.6 7.5 7.3c2.7 3.9 5.3 8.8 3.3 13.6 c-3.4 4.7-8.2 9.8-14 11.1c-1.2 0.2-2.6 0.2-3.8 0.7c1.5 0.8 3.8 0.6 5.5 0.1h1.3c-0.4 8.9 4.4 19.1-2.2 26.3 c-2.4 3.1-6.6 2.7-10.1 2.2c-0.6-0.4-1.6-0.7-2.3-0.4c2.1 1.3 6.1 0.5 6.5 4.1c0.9 3.8-1.2 6.9-3.1 9.9c0.8 0.4 1.4-0.8 2.1-1.1 l3.1-3.7c5.4-1.6 11.9-0.7 17.2 0.5c4.7 0.7 8.9-0.7 11.8-4.6c2.6-3.1 2.5-8.3 1.2-11.9c-1.4-2.7 1.1-5.6 1.1-8.5 c-0.1-1.8-0.3-3.9-1.1-5.3c-0.5 2-0.5 4.3-0.7 6.5c-0.5 1.5-0.4 3.4-2.1 4.3c-4.1-0.6-1.2-3.9-2.6-6.5c-0.1-2.8-2.7-6.1 0.2-8.4 c1.8-2.2 2.8-4.7 3.1-7.5c1.3 0 2.3 1.2 2.9 2.3c1.6 2.8 2.3 5.9 2.7 9.2c2.4 2.3 4.8 5.6 3.6 9c-0.2 0.6-0.9 0.4-1.1 0.2 c-0.5-1.6-0.4-3.6-1.4-5c-1.3 1.7 0.4 3.6-0.1 5.3c0.3 2.9-1.9 5-1.3 7.8c1.1-1.8 1.9-4.1 2.6-6.3c0.5-0.6 1.5-0.4 2.1 0 C183.3 91.1 178 99.8 169.7 104.4z M183 72.3c-1 0-1.4-1.2-1.8-1.9c-0.8-3.5-1.2-7.1-2.9-10.2c4 0.8 3.6 5.1 4.9 7.9 C183.1 69.4 184 71.3 183 72.3z"/></g><path fill="none" d="M139.4 22.9c1 0 1.9-0.8 1.9-1.9c0-1-0.8-1.9-1.9-1.9c-1 0-1.9 0.8-1.9 1.9C137.5 22.1 138.3 22.9 139.4 22.9z "/><path fill="none" d="M121.8 135.7c0 1 0.8 1.9 1.9 1.9c1 0 1.9-0.8 1.9-1.9c0-1-0.8-1.9-1.9-1.9 C122.6 133.9 121.8 134.7 121.8 135.7z"/><ellipse transform="matrix(-0.6867 0.7269 -0.7269 -0.6867 355.849 25.062)" fill="none" cx="172.5" cy="89.2" rx="1.6" ry="1.6"/><circle fill="none" cx="161.4" cy="104.3" r="1.3"/><circle fill="none" cx="144.4" cy="116.9" r="1.3"/><path fill="none" d="M143.8 125.6c0.7 0 1.3-0.6 1.3-1.3c0-0.7-0.6-1.3-1.3-1.3c-0.7 0-1.3 0.6-1.3 1.3 C142.5 125.1 143 125.6 143.8 125.6z"/><path fill="none" d="M114.2 19.9c0.9 0 1.6-0.7 1.6-1.6c0-0.9-0.7-1.6-1.6-1.6c-0.9 0-1.6 0.7-1.6 1.6 C112.6 19.2 113.3 19.9 114.2 19.9z"/><circle fill="none" cx="169.6" cy="43.8" r="1.2"/><path fill="none" d="M106.1 14.4c0-1-0.8-1.9-1.9-1.9c-1 0-1.9 0.8-1.9 1.9c0 1 0.8 1.9 1.9 1.9C105.3 16.2 106.1 15.4 106.1 14.4z "/><path fill="none" d="M119.7 14.2c0 0.9 0.7 1.6 1.6 1.6c0.9 0 1.6-0.7 1.6-1.6c0-0.9-0.7-1.6-1.6-1.6 C120.5 12.6 119.7 13.3 119.7 14.2z"/><circle fill="none" cx="153.7" cy="118.5" r="1.5"/><path fill="none" d="M126 46.5c-0.9 0-1.6 0.7-1.6 1.6c0 0.9 0.7 1.6 1.6 1.6c0.9 0 1.6-0.7 1.6-1.6 C127.6 47.2 126.8 46.5 126 46.5z"/><path fill="none" d="M179.8 61c0.6 0.6 1.6 0.6 2.2-0.1c0.6-0.6 0.6-1.6-0.1-2.2c-0.6-0.6-1.6-0.6-2.2 0.1l0 0 C179.2 59.4 179.2 60.4 179.8 61z"/><circle fill="none" cx="142.8" cy="48.8" r="1.1"/><circle fill="none" cx="145.7" cy="53.8" r="1.1"/><ellipse fill="none" cx="140.9" cy="66.5" rx="1.3" ry="1.3"/><circle fill="none" cx="158.4" cy="39.6" r="1"/><path fill="none" d="M174 63.9c0.6-0.6 0.6-1.6-0.1-2.2c-0.6-0.6-1.6-0.6-2.2 0.1c-0.6 0.6-0.6 1.6 0.1 2.2 C172.4 64.6 173.4 64.6 174 63.9z"/><circle fill="none" cx="181" cy="90.1" r="1"/><circle fill="none" cx="157.4" cy="110.3" r="1"/><path fill="#48484A" d="M159.2 110.8l5.3 0l11.4-11.4l0-3.7l4-4c-0.1-0.1-0.2-0.1-0.2-0.2c-0.1-0.1-0.1-0.2-0.2-0.2l-4.2 4.2l0 3.7 l-11 11l-4.9 0C159.3 110.4 159.3 110.6 159.2 110.8z"/><path fill="#48484A" d="M180.3 91.2l-0.5 0.5c0.8 0.5 1.8 0.5 2.5-0.2c0.8-0.8 0.7-2 0-2.7c-0.8-0.8-2-0.8-2.7 0 c-0.7 0.7-0.7 1.7-0.2 2.5l0.5-0.5L180.3 91.2z M180.2 89.4c0.4-0.4 1.1-0.4 1.5 0c0.4 0.4 0.4 1.1 0 1.5c-0.4 0.4-1.1 0.4-1.5 0 C179.8 90.5 179.8 89.8 180.2 89.4z"/><path fill="#48484A" d="M179.8 91.7l0.5-0.5l-0.4-0.4l-0.5 0.5c0.1 0.1 0.1 0.2 0.2 0.2C179.7 91.6 179.8 91.6 179.8 91.7z"/><path fill="#48484A" d="M156 108.9c-0.8 0.7-0.7 2 0 2.7c0.8 0.8 2 0.8 2.7 0c0.2-0.2 0.4-0.5 0.5-0.8l-0.6 0h0l0-0.6h0.7 c0-0.5-0.2-0.9-0.6-1.3C158 108.2 156.7 108.2 156 108.9z M158.1 111c-0.4 0.4-1.1 0.4-1.5 0c-0.4-0.4-0.4-1.1 0-1.5 c0.4-0.4 1.1-0.4 1.5 0C158.5 109.9 158.5 110.6 158.1 111z"/><path fill="#48484A" d="M158.6 110.8L158.6 110.8l0.6 0c0.1-0.2 0.1-0.4 0.1-0.6h-0.7L158.6 110.8z"/><path fill="none" d="M163.9 91.1c0.7 0 1.2-0.5 1.2-1.2c0-0.7-0.5-1.2-1.2-1.2c-0.7 0-1.2 0.5-1.2 1.2 C162.7 90.5 163.2 91.1 163.9 91.1z"/><path fill="#48484A" d="M162.7 91.7c-0.2-0.1-0.4-0.3-0.5-0.5l-4.5 4.5l-20.9 0v0.7H158L162.7 91.7z"/><path fill="#48484A" d="M163.2 91.3l-0.4 0.4c0.3 0.2 0.7 0.3 1.2 0.3c1.2 0 2.2-1 2.2-2.2c0-1.2-1-2.2-2.2-2.2 c-1.2 0-2.2 1-2.2 2.2c0 0.5 0.2 1 0.5 1.4l0.5-0.5L163.2 91.3z M163.9 88.7c0.7 0 1.2 0.5 1.2 1.2c0 0.7-0.5 1.2-1.2 1.2 c-0.7 0-1.2-0.5-1.2-1.2C162.7 89.2 163.2 88.7 163.9 88.7z"/><path fill="#48484A" d="M162.7 91.7l0.4-0.4l-0.5-0.5l-0.5 0.5C162.3 91.4 162.5 91.6 162.7 91.7z"/><path fill="#48484A" d="M101 103.2h28.6l5.6 5.6h9l6.7 7.2c0.2-0.2 0.4-0.4 0.6-0.5l-7-7.5h-9.1l-5.6-5.6H101V103.2z"/><path fill="#48484A" d="M131.1 111.3l5.9 6h5c0-0.1 0-0.2 0-0.3c0-0.2 0-0.4 0.1-0.5h-4.7l-5.7-5.7l-6.1-6.1H99.9 c0.1 0.2 0.1 0.3 0.2 0.5c0 0.1 0 0.2 0 0.3h25.1L131.1 111.3z"/><path fill="#48484A" d="M129.5 124.6h11.9c0-0.1 0-0.2 0-0.3c0-0.2 0-0.4 0.1-0.5h-11.6l-13.5-11.7l-16.7 0.2 c0.1 0.3 0.3 0.5 0.4 0.8l16-0.2L129.5 124.6z"/><path fill="#48484A" d="M118.4 99.5l5.6-5.6h10.3l6.3 6.3h7.1l4.3 4.3l7.2 0.1c0-0.1 0-0.2 0-0.3c0-0.2 0-0.3 0-0.5l-6.9-0.1 l-4.3-4.3h-7.1l-6.3-6.3h-10.9l-5.6 5.6h-17.3c0.2 0.2 0.3 0.5 0.5 0.8H118.4z"/><path fill="#48484A" d="M157.4 118.5c0-2.1-1.7-3.7-3.7-3.7c-0.8 0-1.6 0.3-2.2 0.7c-0.2 0.2-0.4 0.3-0.6 0.5c-0.6 0.7-1 1.5-1 2.5 c0 1.5 0.9 2.9 2.3 3.4l0.1 2.9l-6.4 5.8h-15.1l-16.5-14.8l-13.5 0c0.1 0.7 0.2 1.5 0.3 2.2l12.3 0l16.5 14.8h16.8l7.8-7.1 l-0.2-3.6C156.2 121.8 157.4 120.3 157.4 118.5z M153.7 120c-0.8 0-1.5-0.7-1.5-1.5c0-0.8 0.7-1.5 1.5-1.5c0.8 0 1.5 0.7 1.5 1.5 C155.2 119.3 154.6 120 153.7 120z"/><path fill="#48484A" d="M144.4 114.5c-1.1 0-2.1 0.8-2.3 1.9c0 0.2-0.1 0.3-0.1 0.5c0 0.1 0 0.2 0 0.3c0.1 1.2 1.1 2.1 2.4 2.1 c1.3 0 2.4-1.1 2.4-2.4C146.8 115.6 145.7 114.5 144.4 114.5z M144.4 118.2c-0.7 0-1.3-0.6-1.3-1.3c0-0.7 0.6-1.3 1.3-1.3 c0.7 0 1.3 0.6 1.3 1.3C145.7 117.7 145.1 118.2 144.4 118.2z"/><path fill="#48484A" d="M161.4 102c-1.1 0-2 0.8-2.3 1.8c0 0.2 0 0.3 0 0.5c0 0.1 0 0.2 0 0.3c0.1 1.2 1.1 2 2.3 2 c1.3 0 2.3-1 2.3-2.3C163.7 103 162.7 102 161.4 102z M161.4 105.6c-0.7 0-1.3-0.6-1.3-1.3c0-0.7 0.6-1.3 1.3-1.3 c0.7 0 1.3 0.6 1.3 1.3C162.6 105 162.1 105.6 161.4 105.6z"/><path fill="#48484A" d="M143.8 121.9c-1.1 0-2.1 0.8-2.3 1.9c0 0.2-0.1 0.3-0.1 0.5c0 0.1 0 0.2 0 0.3c0.1 1.2 1.1 2.1 2.4 2.1 c1.3 0 2.4-1.1 2.4-2.4C146.2 123 145.1 121.9 143.8 121.9z M143.8 125.6c-0.7 0-1.3-0.6-1.3-1.3c0-0.7 0.6-1.3 1.3-1.3 c0.7 0 1.3 0.6 1.3 1.3C145.1 125.1 144.5 125.6 143.8 125.6z"/><path fill="#48484A" d="M102.1 90.4l14-14v-37l16.5-16.5l2.7 0c-0.2-0.6-0.4-1.2-0.4-1.8c0-0.3 0-0.6 0.1-0.9h-3.5l-18 18.1v37 l-14 14v37.3c0.9 0.1 1.8 0 2.7 0.2V90.4z"/><path fill="#48484A" d="M97.6 71.2l8.1-8.1V18.7c-0.5 0.2-1 0.3-1.5 0.3c-0.4 0-0.8-0.1-1.2-0.2v43.1l-5.3 5.3L97.6 71.2z"/><polygon fill="#48484A" points="97.3,89.3 111.2,75.3 111.2,38.5 122,27.7 122,17.3 121,17.3 121,27.3 110.2,38.1 110.2,74.9 97.4,87.8"/><path fill="#48484A" d="M97.4 84.6L109 72.8v-8.8V24.3l3.5-3.5c-0.3-0.2-0.5-0.4-0.7-0.7l-3.8 3.8v40.2v8.4L97.6 83.1L97.4 84.6z"/><path fill="#48484A" d="M138.8 16.5c-2.2 0-4.1 1.6-4.5 3.7c-0.1 0.3-0.1 0.6-0.1 0.9c0 0.6 0.1 1.3 0.4 1.8 c0.7 1.6 2.3 2.7 4.2 2.7c2.5 0 4.5-2 4.5-4.6C143.3 18.5 141.3 16.5 138.8 16.5z M138.8 22.9c-1 0-1.9-0.8-1.9-1.9 c0-1 0.8-1.9 1.9-1.9c1 0 1.9 0.8 1.9 1.9C140.6 22.1 139.8 22.9 138.8 22.9z"/><path fill="#48484A" d="M104.2 9.8c-2.5 0-4.5 2-4.5 4.6c0 2.1 1.4 3.9 3.4 4.4c0.4 0.1 0.8 0.2 1.2 0.2c0.5 0 1-0.1 1.5-0.3 c1.8-0.6 3-2.3 3-4.3C108.8 11.9 106.8 9.8 104.2 9.8z M104.2 16.2c-1 0-1.9-0.8-1.9-1.9c0-1 0.8-1.9 1.9-1.9c1 0 1.9 0.8 1.9 1.9 C106.1 15.4 105.3 16.2 104.2 16.2z"/><path fill="#48484A" d="M118.4 14.8c0 1.6 1.3 2.9 2.9 2.9c1.6 0 2.9-1.3 2.9-2.9c0-1.6-1.3-2.9-2.9-2.9 C119.7 11.8 118.4 13.2 118.4 14.8z M122.9 14.8c0 0.9-0.7 1.6-1.6 1.6c-0.9 0-1.6-0.7-1.6-1.6c0-0.9 0.7-1.6 1.6-1.6 C122.2 13.2 122.9 13.9 122.9 14.8z"/><path fill="#48484A" d="M114.2 15.4c-1.6 0-2.9 1.3-2.9 2.9c0 0.6 0.2 1.2 0.6 1.7c0.2 0.3 0.4 0.5 0.7 0.7 c0.5 0.3 1.1 0.6 1.7 0.6c1.6 0 2.9-1.3 2.9-2.9C117.1 16.7 115.8 15.4 114.2 15.4z M114.2 19.9c-0.9 0-1.6-0.7-1.6-1.6 c0-0.9 0.7-1.6 1.6-1.6c0.9 0 1.6 0.7 1.6 1.6C115.8 19.2 115.1 19.9 114.2 19.9z"/><path fill="#48484A" d="M160.2 40.2c0-1-0.8-1.8-1.8-1.8c-1 0-1.8 0.8-1.8 1.8c0 1 0.8 1.8 1.8 1.8C159.4 42 160.2 41.2 160.2 40.2 z M157.5 40.2c0-0.5 0.4-1 1-1c0.5 0 1 0.4 1 1c0 0.5-0.4 1-1 1C157.9 41.2 157.5 40.7 157.5 40.2z"/><path fill="none" d="M126.5 32.1c-0.5 0-0.9 0.4-0.9 0.9c0 0.5 0.4 0.9 0.9 0.9c0.5 0 0.9-0.4 0.9-0.9 C127.4 32.5 127 32.1 126.5 32.1z"/><ellipse fill="none" cx="138.1" cy="30.9" rx="0.9" ry="0.9"/><path fill="none" d="M153.9 32.3c0-0.8-0.6-1.4-1.3-1.4c-0.7 0-1.3 0.6-1.3 1.4c0 0.8 0.6 1.4 1.3 1.4 C153.4 33.7 153.9 33 153.9 32.3z"/><path fill="#48484A" d="M147.8 37.5h-11.6l-4.5-4.8h-3.5c0 0.1 0 0.2 0 0.3c0 0.1 0 0.2 0 0.3h3.3l4.5 4.8H148l3.6-3.9 c-0.2-0.1-0.3-0.2-0.4-0.3L147.8 37.5z"/><path fill="#48484A" d="M153.7 22.4l-1.5-1.6h-5l-8.1 8.6c0.1 0.1 0.3 0.2 0.4 0.4l8-8.4h4.6l1.2 1.2v7.5c0.2 0.1 0.4 0.1 0.5 0.2 V22.4z"/><path fill="#48484A" d="M127.6 32.7L127.6 32.7h0.6c-0.1-0.8-0.8-1.4-1.6-1.4c-0.9 0-1.6 0.8-1.6 1.7c0 1 0.7 1.7 1.6 1.7 c0.8 0 1.5-0.6 1.6-1.4h-0.6V32.7z M126.5 33.9c-0.5 0-0.9-0.4-0.9-0.9c0-0.5 0.4-0.9 0.9-0.9c0.5 0 0.9 0.4 0.9 0.9 C127.4 33.5 127 33.9 126.5 33.9z"/><path fill="#48484A" d="M128.1 32.7h-0.6l0 0v0.6h0.6c0-0.1 0-0.2 0-0.3C128.1 32.9 128.1 32.8 128.1 32.7z"/><path fill="#48484A" d="M138.8 29.7l0.3-0.3c-0.3-0.2-0.6-0.3-0.9-0.3c-0.9 0-1.6 0.8-1.6 1.7c0 1 0.7 1.7 1.6 1.7 c0.9 0 1.6-0.8 1.6-1.7c0-0.4-0.1-0.8-0.4-1.1l-0.3 0.3L138.8 29.7z M139 30.9c0 0.5-0.4 0.9-0.9 0.9c-0.5 0-0.9-0.4-0.9-0.9 c0-0.5 0.4-0.9 0.9-0.9C138.6 29.9 139 30.3 139 30.9z"/><path fill="#48484A" d="M139 29.4l-0.3 0.3l0.4 0.4l0.3-0.3C139.3 29.7 139.2 29.5 139 29.4z"/><path fill="#48484A" d="M154.7 32.3c0-0.8-0.4-1.5-1-1.9v0.5h-0.5v-0.7c-0.2 0-0.3-0.1-0.5-0.1c-1.1 0-2.1 1-2.1 2.2 c0 0.6 0.3 1.2 0.7 1.6l0.2-0.2l0.4 0.4l-0.1 0.1c0.3 0.2 0.6 0.3 1 0.3C153.8 34.4 154.7 33.5 154.7 32.3z M151.3 32.3 c0-0.8 0.6-1.4 1.3-1.4c0.7 0 1.3 0.6 1.3 1.4c0 0.8-0.6 1.4-1.3 1.4C151.9 33.7 151.3 33 151.3 32.3z"/><path fill="#48484A" d="M151.4 33.7l-0.2 0.2c0.1 0.1 0.3 0.2 0.4 0.3l0.1-0.1L151.4 33.7z"/><path fill="#48484A" d="M153.7 30.9v-0.5c-0.2-0.1-0.3-0.2-0.5-0.2v0.7H153.7z"/><path fill="#48484A" d="M143 53.8c0 1.1 0.9 2.1 2.1 2.1c1.1 0 2.1-0.9 2.1-2.1c0-1.1-0.9-2.1-2.1-2.1 C143.9 51.8 143 52.7 143 53.8z M146.2 53.8c0 0.6-0.5 1.1-1.1 1.1c-0.6 0-1.1-0.5-1.1-1.1c0-0.6 0.5-1.1 1.1-1.1 C145.7 52.7 146.2 53.2 146.2 53.8z"/><path fill="#48484A" d="M128 50.1l11.6 11.5l0 1.9c0.4-0.2 0.8-0.3 1.3-0.3c0.2 0 0.4 0 0.6 0.1v-2.5l-12.7-12.6H115v1.9H128z"/><path fill="#48484A" d="M141.5 62.8c-0.2 0-0.4-0.1-0.6-0.1c-0.5 0-0.9 0.1-1.3 0.3c-1.1 0.5-1.9 1.6-1.9 2.9 c0 1.8 1.4 3.2 3.2 3.2c1.8 0 3.2-1.4 3.2-3.2C144.1 64.4 143 63.1 141.5 62.8z M140.9 67.2c-0.7 0-1.3-0.6-1.3-1.3 c0-0.7 0.6-1.3 1.3-1.3c0.7 0 1.3 0.6 1.3 1.3C142.2 66.6 141.6 67.2 140.9 67.2z"/><path fill="#48484A" d="M142.5 42.9c-0.1-0.3-0.2-0.7-0.2-1.1c0-0.3 0-0.6 0.1-0.8H115v1.9H142.5z"/><polygon fill="#48484A" points="128.6,46.7 136.2,54.3 143.5,54.3 143.5,53.6 136.5,53.6 128.9,46.1 115,46.1 115,46.7"/><path fill="#48484A" d="M138.6 45.2l2.5 2.5c0.1-0.2 0.3-0.3 0.5-0.5l-2.7-2.7H115v0.7H138.6z"/><path fill="#48484A" d="M142.8 46.8c-0.4 0-0.9 0.1-1.2 0.4c-0.2 0.1-0.3 0.3-0.5 0.5c-0.2 0.3-0.4 0.7-0.4 1.2 c0 1.1 0.9 2.1 2.1 2.1c1.1 0 2.1-0.9 2.1-2.1C144.8 47.7 143.9 46.8 142.8 46.8z M142.8 50c-0.6 0-1.1-0.5-1.1-1.1 c0-0.6 0.5-1.1 1.1-1.1c0.6 0 1.1 0.5 1.1 1.1C143.9 49.5 143.4 50 142.8 50z"/><path fill="#48484A" d="M111 99.3l13-13.7l33-1l5.6-5.9l15.1-0.5l4.3 4c0.1-0.2 0.5-0.7 0.6-0.7l-4.5-4.2l-15.8 0.5l-5.6 5.9l-33 1 l-13.3 14C110.5 98.9 110.7 99.1 111 99.3z"/><path fill="#48484A" d="M180.4 69c-1-1-2.5-1-3.6-0.3l-0.9 1c-0.5 0.9-0.5 1.9-0.1 2.8c0.1 0.3 0.3 0.5 0.6 0.8l0 0 c1.2 1.1 3 1.1 4.1-0.1C181.7 71.9 181.6 70.1 180.4 69z M179.6 72.2c-0.6 0.6-1.6 0.7-2.2 0.1c-0.6-0.6-0.7-1.6-0.1-2.2 c0.6-0.6 1.6-0.7 2.2-0.1C180.1 70.6 180.2 71.6 179.6 72.2z"/><path fill="#48484A" d="M105.1 99.2l17.8-18.8l31.4-0.9l6.5-6.9l3.6-0.1l4.6-4.9c0.1-0.2 0.2-0.4 0.4-0.5c0.2-0.2 0.3-0.3 0.5-0.4 l1.3-1.3c-0.1-0.1-0.3-0.2-0.4-0.3c-0.1-0.1-0.2-0.2-0.3-0.4l-6.5 6.9l-3.6 0.1l-6.5 6.9l-31.4 1l-18.4 19.5 C104.4 99 105.1 99.2 105.1 99.2z"/><path fill="#48484A" d="M174.8 60.7c-1.2-1.1-3-1.1-4.1 0.1c-1 1.1-1.1 2.7-0.2 3.8c0.1 0.1 0.2 0.2 0.3 0.4 c0.1 0.1 0.2 0.2 0.4 0.3c1.2 0.8 2.8 0.6 3.8-0.4C176.1 63.7 176 61.8 174.8 60.7z M174 63.9c-0.6 0.6-1.6 0.7-2.2 0.1 c-0.6-0.6-0.7-1.6-0.1-2.2c0.6-0.6 1.6-0.7 2.2-0.1C174.5 62.3 174.6 63.3 174 63.9z"/><path fill="#48484A" d="M182.6 57.5c-1.2-1.1-3-1.1-4.1 0.1c-1 1.1-1.1 2.7-0.2 3.8c0.1 0.1 0.2 0.2 0.3 0.4 c0.1 0.1 0.2 0.2 0.4 0.3c1.2 0.8 2.8 0.6 3.8-0.4C183.8 60.4 183.8 58.6 182.6 57.5z M181.7 60.7c-0.6 0.6-1.6 0.7-2.2 0.1 c-0.6-0.6-0.7-1.6-0.1-2.2c0.6-0.6 1.6-0.7 2.2-0.1C182.3 59.1 182.3 60.1 181.7 60.7z"/><path fill="#48484A" d="M185.9 81.2c-1.2-1.1-3-1.1-4.1 0.1c-1 1.1-1.1 2.7-0.2 3.8c0.1 0.1 0.2 0.2 0.3 0.4 c0.1 0.1 0.2 0.2 0.4 0.3c1.2 0.8 2.8 0.6 3.8-0.4C187.1 84.2 187 82.3 185.9 81.2z M185 84.4c-0.6 0.6-1.6 0.7-2.2 0.1 c-0.6-0.6-0.7-1.6-0.1-2.2c0.6-0.6 1.6-0.7 2.2-0.1C185.6 82.8 185.6 83.8 185 84.4z"/><path fill="#48484A" d="M169 67.6l0.9-1c-0.2 0.1-0.4 0.3-0.5 0.4C169.2 67.2 169.1 67.4 169 67.6z"/><path fill="#48484A" d="M122.4 78l29.3-0.9l21.6-22.9l0.8-0.1l4.3 4.1c0.1-0.1 0.2-0.3 0.3-0.4c0.1-0.1 0.2-0.2 0.4-0.3l-4.7-4.3 l-1.5 0l-21.6 22.9L122 77l-21 21.9c0.4 0.1 0.8 0.1 1.2 0.2L122.4 78z"/><polygon fill="#48484A" points="180.9,87 180.9,87 180.9,87"/><path fill="#48484A" d="M124.9 88.2l33.6-0.7l3.4-3.2l4.4 0.1l3.9 3.1c0.1-0.1 0.1-0.2 0.2-0.3c0.1-0.2 0.8-0.3 1-0.4l-4.7-3.6 l-5.2-0.2l-3.4 3.6l-33.6 0.7l-11.3 11.8c0.2 0.2 1-0.1 1.2 0.1L124.9 88.2z"/><path fill="#48484A" d="M174.5 87.1c-1-1-2.5-1-3.7-0.3c-0.2 0.1-0.3 0.3-0.5 0.4c-0.1 0.1-0.1 0.2-0.2 0.3 c-0.9 1.2-0.8 2.9 0.3 3.9c1.2 1.1 3 1.1 4.1-0.1C175.8 90 175.7 88.2 174.5 87.1z M173.7 90.3c-0.6 0.6-1.6 0.7-2.2 0.1 c-0.6-0.6-0.7-1.6-0.1-2.2c0.6-0.6 1.6-0.7 2.2-0.1C174.2 88.7 174.3 89.7 173.7 90.3z"/><rect x="103.1" y="20.9" fill="#48484A" width="1.8" height="1"/><polygon fill="#48484A" points="103.9,43.3 103.1,43.3 103.1,44.3 104.3,44.3"/><path fill="#48484A" d="M104.7 32.5c0-0.2 0-0.5 0.1-0.7h-1.8v1h1.7C104.8 32.7 104.7 32.6 104.7 32.5z"/><path fill="#48484A" d="M96.7 128.8h18.2l4.7 4.8c0.4-0.8 1.1-1.5 2-1.9l-5.6-5.6H96.1L96.7 128.8z"/><path fill="#48484A" d="M123 130.6c-0.7 0-1.4 0.2-2 0.5c-0.8 0.4-1.5 1.1-2 1.9c-0.4 0.7-0.6 1.4-0.6 2.2c0 2.5 2 4.6 4.5 4.6 c2.5 0 4.5-2 4.5-4.6C127.6 132.7 125.6 130.6 123 130.6z M123 137c-1 0-1.9-0.8-1.9-1.9c0-1 0.8-1.9 1.9-1.9c1 0 1.9 0.8 1.9 1.9 C124.9 136.2 124.1 137 123 137z"/><path fill="#48484A" d="M169 41c-1.4 0-2.5 1-2.8 2.3c0 0.2-0.1 0.4-0.1 0.5c0 0.4 0.1 0.8 0.2 1.1c0.4 1 1.4 1.7 2.6 1.7 c1.6 0 2.8-1.3 2.8-2.8C171.8 42.3 170.5 41 169 41z M169 45c-0.6 0-1.1-0.5-1.1-1.2c0-0.6 0.5-1.1 1.1-1.2c0.6 0 1.1 0.5 1.1 1.2 C170.1 44.5 169.6 45 169 45z"/><path fill="#48484A" d="M144.7 38.7c-1.4 0-2.5 1-2.8 2.3c0 0.2-0.1 0.4-0.1 0.5c0 0.4 0.1 0.8 0.2 1.1c0.4 1 1.4 1.7 2.6 1.7 c1.6 0 2.8-1.3 2.8-2.8C147.5 40 146.3 38.7 144.7 38.7z M144.7 42.7c-0.6 0-1.1-0.5-1.1-1.2c0-0.6 0.5-1.1 1.1-1.2 c0.6 0 1.1 0.5 1.1 1.2C145.9 42.2 145.3 42.7 144.7 42.7z"/><path fill="#48484A" d="M166.8 43.8c0-0.2 0-0.4 0.1-0.5h-2.2l-11.1 11.2V69l-0.7 0.6h-0.6v-15l6.6-6.7v-6.4h-0.6v6.1l-6.6 6.7 v15.2h-36.2v1.6h37.8l1.9-1.6l0-14.5l10.2-10.2l1.7 0C166.8 44.6 166.8 44.2 166.8 43.8z"/><path fill="#48484A" d="M175.7 70.4h-6.8l-4.1 4.1l-3.2 0l-6.3 6.7l-32.3 1l-15.9 16.7c0.3 0.2 0.5 0.4 0.8 0.6l15.5-16.3l32.3-1 l6.3-6.7l3.2 0l4.1-4.1h6.4V70.4z"/><rect x="96.2" y="1.9" fill="#48484A" width="2.3" height="124.9"/><g></g></g><g><path fill="#414042" d="M245.1 89.3V72.2c0-1.6-0.1-2.9-0.3-4.1c-0.2-1.2-0.5-2.2-1-2.9c-0.5-0.8-1.1-1.4-2-1.8 c-0.8-0.4-1.9-0.6-3.2-0.6c-1.9 0-3.6 0.6-5.1 1.8c-1.5 1.2-2.5 2.8-2.9 4.7v20h-4.8v-42h4.8v15.4h0.2c1-1.2 2.3-2.2 3.8-3 c1.5-0.7 3.3-1.1 5.4-1.1c1.7 0 3.1 0.2 4.4 0.6c1.2 0.4 2.3 1 3.1 2c0.8 1 1.4 2.2 1.8 3.9c0.4 1.6 0.6 3.7 0.6 6.1v18.1H245.1z"/><path fill="#414042" d="M256.4 61.5c1.5-0.9 3.3-1.6 5.3-2c2-0.4 4.1-0.7 6.3-0.7c2.1 0 3.8 0.3 5 0.8c1.3 0.6 2.2 1.3 2.9 2.2 c0.7 0.9 1.1 1.9 1.3 3c0.2 1.1 0.3 2.2 0.3 3.2c0 2.4-0.1 4.7-0.2 7c-0.1 2.3-0.2 4.4-0.2 6.5c0 1.5 0.1 2.9 0.2 4.2 s0.3 2.5 0.7 3.7h-3.5l-1.3-4.2h-0.3c-0.4 0.6-0.8 1.1-1.4 1.6s-1.2 1-1.9 1.4c-0.8 0.4-1.6 0.8-2.6 1.1s-2.1 0.4-3.4 0.4 s-2.5-0.2-3.6-0.6s-2-1-2.8-1.7c-0.8-0.7-1.4-1.6-1.9-2.7c-0.5-1-0.7-2.2-0.7-3.5c0-1.8 0.4-3.2 1.1-4.4c0.7-1.2 1.7-2.1 3-2.8 c1.3-0.7 2.9-1.2 4.7-1.5c1.8-0.3 3.8-0.5 6-0.5c0.6 0 1.1 0 1.6 0s1.1 0 1.7 0.1c0.1-1.2 0.2-2.3 0.2-3.2c0-2.2-0.4-3.7-1.3-4.6 c-0.9-0.9-2.5-1.3-4.8-1.3c-0.7 0-1.4 0.1-2.2 0.2c-0.8 0.1-1.6 0.2-2.4 0.4c-0.8 0.2-1.6 0.4-2.3 0.7c-0.7 0.3-1.4 0.6-2 0.9 L256.4 61.5z M264.9 85.5c1.1 0 2.1-0.1 3-0.4c0.9-0.3 1.6-0.7 2.3-1.1c0.6-0.5 1.2-1 1.6-1.5c0.4-0.6 0.7-1.1 0.9-1.6v-5 c-0.6 0-1.1-0.1-1.7-0.1c-0.6 0-1.2 0-1.7 0c-1.2 0-2.5 0.1-3.6 0.2c-1.2 0.1-2.2 0.4-3.1 0.8c-0.9 0.4-1.6 0.9-2.2 1.6 c-0.5 0.7-0.8 1.5-0.8 2.5c0 1.4 0.5 2.5 1.5 3.5C262 85.1 263.3 85.5 264.9 85.5z"/><path fill="#414042" d="M305.3 87.3c-1.2 0.9-2.6 1.6-4.3 2c-1.6 0.5-3.4 0.7-5.2 0.7c-2.3 0-4.3-0.4-5.9-1.1 c-1.6-0.7-2.9-1.8-3.9-3.2c-1-1.4-1.8-3-2.2-5c-0.5-1.9-0.7-4.1-0.7-6.5c0-5.1 1.1-9 3.4-11.7c2.2-2.7 5.5-4.1 9.7-4.1 c1.9 0 3.5 0.2 4.9 0.5s2.6 0.7 3.6 1.3l-1.4 4.1c-0.9-0.5-1.9-0.9-3.1-1.2c-1.1-0.3-2.3-0.5-3.6-0.5c-5.7 0-8.5 3.8-8.5 11.5 c0 1.5 0.2 3 0.5 4.4s0.8 2.6 1.5 3.7c0.7 1.1 1.6 1.9 2.8 2.6c1.1 0.6 2.5 1 4.2 1c1.4 0 2.7-0.2 3.9-0.7c1.1-0.4 2.1-0.9 2.8-1.5 L305.3 87.3z"/><path fill="#414042" d="M317.6 75.8h-2.8v13.5h-4.8v-42h4.8v25.6l2.5-0.8l9.3-12.7h5.6L323 71.3l-2.5 2l3 2.4l10 13.6h-5.9 L317.6 75.8z"/><path fill="#414042" d="M337 50.1c0-0.9 0.3-1.7 0.9-2.4c0.6-0.7 1.4-1 2.4-1s1.8 0.3 2.5 1c0.7 0.7 1 1.5 1 2.4 c0 0.9-0.3 1.7-1 2.3c-0.7 0.6-1.5 0.9-2.5 0.9s-1.8-0.3-2.4-0.9C337.3 51.8 337 51.1 337 50.1z M338 59.3h4.8v30H338V59.3z"/><path fill="#414042" d="M370.5 89.3V72.2c0-3.1-0.5-5.5-1.3-7c-0.9-1.6-2.5-2.4-5-2.4c-2.1 0-3.9 0.6-5.2 1.7s-2.4 2.6-2.9 4.3 v20.5h-4.8v-30h3.4l0.9 3.7h0.2c1-1.3 2.2-2.3 3.9-3.2c1.6-0.8 3.5-1.2 5.8-1.2c1.6 0 3.1 0.2 4.3 0.6c1.2 0.4 2.3 1 3.1 2 c0.8 1 1.4 2.2 1.9 3.9s0.6 3.7 0.6 6.1v18.1H370.5z"/><path fill="#414042" d="M405.3 90.6c0 3.9-1 6.7-3.1 8.6c-2.1 1.8-5.1 2.8-9.1 2.8c-2.4 0-4.3-0.2-5.8-0.5 c-1.5-0.3-2.7-0.7-3.8-1.2l1.3-4.1c0.9 0.4 1.9 0.7 3.1 1c1.1 0.3 2.6 0.5 4.4 0.5c1.7 0 3-0.1 4.1-0.5c1.1-0.3 1.9-0.8 2.5-1.5 c0.6-0.7 1.1-1.6 1.3-2.7c0.2-1.1 0.4-2.4 0.4-3.9v-2.9h-0.2c-0.8 1.2-1.8 2.1-3.1 2.7s-2.9 0.9-4.9 0.9c-4 0-7-1.3-8.9-3.8 c-1.9-2.5-2.8-6.4-2.8-11.8c0-5.1 1.2-9 3.7-11.7c2.4-2.7 6-4 10.8-4c2.3 0 4.2 0.2 5.8 0.5s3.1 0.8 4.3 1.3V90.6z M393.2 85.7 c2 0 3.6-0.5 4.8-1.5s2-2.6 2.5-4.8V64.1c-1.6-0.8-3.6-1.1-6.1-1.1c-2.7 0-4.9 0.9-6.4 2.8c-1.6 1.8-2.3 4.7-2.3 8.6 c0 1.7 0.1 3.2 0.4 4.6c0.3 1.4 0.7 2.6 1.3 3.6c0.6 1 1.4 1.8 2.3 2.3C390.6 85.5 391.8 85.7 393.2 85.7z"/><path fill="#414042" d="M411 86.5c0-1.1 0.3-1.9 0.9-2.6c0.6-0.6 1.4-0.9 2.5-0.9c1.1 0 1.9 0.3 2.6 0.9c0.6 0.6 1 1.5 1 2.6 c0 1-0.3 1.9-1 2.5c-0.6 0.6-1.5 1-2.6 1c-1 0-1.9-0.3-2.5-1C411.3 88.4 411 87.6 411 86.5z"/><path fill="#414042" d="M443 89.3V72.2c0-1.6-0.1-2.9-0.3-4.1c-0.2-1.2-0.5-2.2-1-2.9c-0.5-0.8-1.1-1.4-2-1.8 c-0.8-0.4-1.9-0.6-3.2-0.6c-1.9 0-3.6 0.6-5.1 1.8c-1.5 1.2-2.5 2.8-2.9 4.7v20h-4.8v-42h4.8v15.4h0.2c1-1.2 2.3-2.2 3.8-3 c1.5-0.7 3.3-1.1 5.4-1.1c1.7 0 3.1 0.2 4.4 0.6c1.2 0.4 2.3 1 3.1 2c0.8 1 1.4 2.2 1.8 3.9c0.4 1.6 0.6 3.7 0.6 6.1v18.1H443z"/><path fill="#414042" d="M476.7 86.9c-1.2 1-2.7 1.7-4.5 2.3c-1.8 0.6-3.8 0.8-5.8 0.8c-2.3 0-4.3-0.4-5.9-1.1 c-1.7-0.7-3.1-1.8-4.1-3.2c-1.1-1.4-1.9-3-2.4-5c-0.5-1.9-0.8-4.1-0.8-6.5c0-5.1 1.1-9 3.4-11.7c2.3-2.7 5.5-4 9.8-4 c1.4 0 2.7 0.2 4.1 0.5c1.4 0.3 2.6 0.9 3.7 1.7s2 2 2.6 3.6c0.7 1.5 1 3.6 1 6.1c0 1.3-0.1 2.8-0.4 4.4h-19.3 c0 1.8 0.2 3.3 0.5 4.7c0.4 1.4 0.9 2.5 1.7 3.4c0.8 0.9 1.8 1.7 3 2.2c1.2 0.5 2.7 0.8 4.5 0.8c1.4 0 2.7-0.2 4.1-0.7 c1.4-0.5 2.4-1 3.1-1.7L476.7 86.9z M466.3 62.7c-2.4 0-4.3 0.6-5.7 1.9c-1.4 1.2-2.3 3.4-2.5 6.4H473c0-3-0.6-5.2-1.7-6.4 C470.1 63.4 468.5 62.7 466.3 62.7z"/><path fill="#414042" d="M483 61.5c1.5-0.9 3.3-1.6 5.3-2c2-0.4 4.1-0.7 6.3-0.7c2.1 0 3.8 0.3 5 0.8c1.3 0.6 2.2 1.3 2.9 2.2 c0.7 0.9 1.1 1.9 1.3 3c0.2 1.1 0.3 2.2 0.3 3.2c0 2.4-0.1 4.7-0.2 7c-0.1 2.3-0.2 4.4-0.2 6.5c0 1.5 0.1 2.9 0.2 4.2 s0.3 2.5 0.7 3.7h-3.5l-1.3-4.2h-0.3c-0.4 0.6-0.8 1.1-1.4 1.6s-1.2 1-1.9 1.4c-0.8 0.4-1.6 0.8-2.6 1.1s-2.1 0.4-3.4 0.4 s-2.5-0.2-3.6-0.6s-2-1-2.8-1.7c-0.8-0.7-1.4-1.6-1.9-2.7c-0.5-1-0.7-2.2-0.7-3.5c0-1.8 0.4-3.2 1.1-4.4c0.7-1.2 1.7-2.1 3-2.8 c1.3-0.7 2.9-1.2 4.7-1.5c1.8-0.3 3.8-0.5 6-0.5c0.6 0 1.1 0 1.6 0s1.1 0 1.7 0.1c0.1-1.2 0.2-2.3 0.2-3.2c0-2.2-0.4-3.7-1.3-4.6 c-0.9-0.9-2.5-1.3-4.8-1.3c-0.7 0-1.4 0.1-2.2 0.2c-0.8 0.1-1.6 0.2-2.4 0.4c-0.8 0.2-1.6 0.4-2.3 0.7c-0.7 0.3-1.4 0.6-2 0.9 L483 61.5z M491.5 85.5c1.1 0 2.1-0.1 3-0.4c0.9-0.3 1.6-0.7 2.3-1.1c0.6-0.5 1.2-1 1.6-1.5c0.4-0.6 0.7-1.1 0.9-1.6v-5 c-0.6 0-1.1-0.1-1.7-0.1c-0.6 0-1.2 0-1.7 0c-1.2 0-2.5 0.1-3.6 0.2c-1.2 0.1-2.2 0.4-3.1 0.8c-0.9 0.4-1.6 0.9-2.2 1.6 c-0.5 0.7-0.8 1.5-0.8 2.5c0 1.4 0.5 2.5 1.5 3.5C488.6 85.1 489.9 85.5 491.5 85.5z"/><path fill="#414042" d="M516.7 81.9c0 1.4 0.2 2.4 0.7 3c0.5 0.6 1.2 0.9 2 0.9c0.5 0 1.1 0 1.7-0.1c0.6-0.1 1.3-0.3 2-0.5l0.5 3.8 c-0.6 0.3-1.5 0.6-2.7 0.8c-1.1 0.2-2.1 0.3-3 0.3c-1.8 0-3.3-0.5-4.4-1.5c-1.2-1-1.7-2.7-1.7-5.2v-36h4.8V81.9z"/><path fill="#414042" d="M523.2 59.3h4.7v-5.9l4.8-1.4v7.3h8.2v4.2h-8.2v16.6c0 2.1 0.3 3.6 0.8 4.4c0.5 0.9 1.4 1.3 2.6 1.3 c1 0 1.9-0.1 2.6-0.3c0.7-0.2 1.5-0.5 2.4-0.9l1.1 3.7c-1.1 0.5-2.3 0.9-3.5 1.3c-1.3 0.3-2.7 0.5-4.1 0.5c-2.4 0-4.2-0.7-5.2-2.1 s-1.5-3.7-1.5-6.9V63.5h-4.7V59.3z"/><path fill="#414042" d="M564.9 89.3V72.2c0-1.6-0.1-2.9-0.3-4.1c-0.2-1.2-0.5-2.2-1-2.9c-0.5-0.8-1.1-1.4-2-1.8 c-0.8-0.4-1.9-0.6-3.2-0.6c-1.9 0-3.6 0.6-5.1 1.8c-1.5 1.2-2.5 2.8-2.9 4.7v20h-4.8v-42h4.8v15.4h0.2c1-1.2 2.3-2.2 3.8-3 c1.5-0.7 3.3-1.1 5.4-1.1c1.7 0 3.1 0.2 4.4 0.6c1.2 0.4 2.3 1 3.1 2c0.8 1 1.4 2.2 1.8 3.9c0.4 1.6 0.6 3.7 0.6 6.1v18.1H564.9z"/><path fill="#414042" d="M597.1 87.3c-1.2 0.9-2.6 1.6-4.3 2c-1.6 0.5-3.4 0.7-5.2 0.7c-2.3 0-4.3-0.4-5.9-1.1 c-1.6-0.7-2.9-1.8-3.9-3.2c-1-1.4-1.8-3-2.2-5c-0.5-1.9-0.7-4.1-0.7-6.5c0-5.1 1.1-9 3.4-11.7c2.2-2.7 5.5-4.1 9.7-4.1 c1.9 0 3.5 0.2 4.9 0.5s2.6 0.7 3.6 1.3l-1.4 4.1c-0.9-0.5-1.9-0.9-3.1-1.2c-1.1-0.3-2.3-0.5-3.6-0.5c-5.7 0-8.5 3.8-8.5 11.5 c0 1.5 0.2 3 0.5 4.4s0.8 2.6 1.5 3.7c0.7 1.1 1.6 1.9 2.8 2.6c1.1 0.6 2.5 1 4.2 1c1.4 0 2.7-0.2 3.9-0.7c1.1-0.4 2.1-0.9 2.8-1.5 L597.1 87.3z"/><path fill="#414042" d="M601.5 61.5c1.5-0.9 3.3-1.6 5.3-2c2-0.4 4.1-0.7 6.3-0.7c2.1 0 3.8 0.3 5 0.8c1.3 0.6 2.2 1.3 2.9 2.2 c0.7 0.9 1.1 1.9 1.3 3c0.2 1.1 0.3 2.2 0.3 3.2c0 2.4-0.1 4.7-0.2 7c-0.1 2.3-0.2 4.4-0.2 6.5c0 1.5 0.1 2.9 0.2 4.2 s0.3 2.5 0.7 3.7h-3.5l-1.3-4.2H618c-0.4 0.6-0.8 1.1-1.4 1.6s-1.2 1-1.9 1.4c-0.8 0.4-1.6 0.8-2.6 1.1s-2.1 0.4-3.4 0.4 s-2.5-0.2-3.6-0.6s-2-1-2.8-1.7c-0.8-0.7-1.4-1.6-1.9-2.7c-0.5-1-0.7-2.2-0.7-3.5c0-1.8 0.4-3.2 1.1-4.4c0.7-1.2 1.7-2.1 3-2.8 c1.3-0.7 2.9-1.2 4.7-1.5c1.8-0.3 3.8-0.5 6-0.5c0.6 0 1.1 0 1.6 0s1.1 0 1.7 0.1c0.1-1.2 0.2-2.3 0.2-3.2c0-2.2-0.4-3.7-1.3-4.6 c-0.9-0.9-2.5-1.3-4.8-1.3c-0.7 0-1.4 0.1-2.2 0.2c-0.8 0.1-1.6 0.2-2.4 0.4c-0.8 0.2-1.6 0.4-2.3 0.7c-0.7 0.3-1.4 0.6-2 0.9 L601.5 61.5z M610 85.5c1.1 0 2.1-0.1 3-0.4c0.9-0.3 1.6-0.7 2.3-1.1c0.6-0.5 1.2-1 1.6-1.5c0.4-0.6 0.7-1.1 0.9-1.6v-5 c-0.6 0-1.1-0.1-1.7-0.1c-0.6 0-1.2 0-1.7 0c-1.2 0-2.5 0.1-3.6 0.2c-1.2 0.1-2.2 0.4-3.1 0.8c-0.9 0.4-1.6 0.9-2.2 1.6 c-0.5 0.7-0.8 1.5-0.8 2.5c0 1.4 0.5 2.5 1.5 3.5C607.1 85.1 608.4 85.5 610 85.5z"/><path fill="#414042" d="M644.1 63.9c-1.2-0.4-2.3-0.6-3.4-0.6c-1.7 0-3.1 0.5-4.1 1.4c-1 0.9-1.6 2.1-1.9 3.6v21h-4.8v-30h3.4 l0.9 3.7h0.2c0.8-1.4 1.7-2.4 2.7-3.2c1.1-0.7 2.4-1.1 4.1-1.1c1.2 0 2.5 0.2 3.9 0.6L644.1 63.9z"/><path fill="#414042" d="M670.4 86.9c-1.2 1-2.7 1.7-4.5 2.3c-1.8 0.6-3.8 0.8-5.8 0.8c-2.3 0-4.3-0.4-5.9-1.1 c-1.7-0.7-3.1-1.8-4.1-3.2c-1.1-1.4-1.9-3-2.4-5c-0.5-1.9-0.8-4.1-0.8-6.5c0-5.1 1.1-9 3.4-11.7c2.3-2.7 5.5-4 9.8-4 c1.4 0 2.7 0.2 4.1 0.5c1.4 0.3 2.6 0.9 3.7 1.7s2 2 2.6 3.6c0.7 1.5 1 3.6 1 6.1c0 1.3-0.1 2.8-0.4 4.4h-19.3 c0 1.8 0.2 3.3 0.5 4.7c0.4 1.4 0.9 2.5 1.7 3.4c0.8 0.9 1.8 1.7 3 2.2c1.2 0.5 2.7 0.8 4.5 0.8c1.4 0 2.7-0.2 4.1-0.7 c1.4-0.5 2.4-1 3.1-1.7L670.4 86.9z M660.1 62.7c-2.4 0-4.3 0.6-5.7 1.9c-1.4 1.2-2.3 3.4-2.5 6.4h14.9c0-3-0.6-5.2-1.7-6.4 C663.8 63.4 662.2 62.7 660.1 62.7z"/></g></svg>