<?xml version="1.0" encoding="utf-8"?>
<!-- Generator: Adobe Illustrator 19.0.1, SVG Export Plug-In . SVG Version: 6.00 Build 0)  -->
<svg version="1.1" id="Warstwa_1" xmlns="http://www.w3.org/2000/svg" xmlns:xlink="http://www.w3.org/1999/xlink" x="0px" y="0px"
	 viewBox="0 0 70 70" style="enable-background:new 0 0 70 70;" xml:space="preserve">
<style type="text/css">
	.st0{fill-rule:evenodd;clip-rule:evenodd;}
</style>
<path class="st0" d="M26.4,70c0-0.3-0.1-0.6-0.1-0.9c0-10,0-20,0-30c0-1,0-1-1-1c-3,0-6,0-9,0c-0.6,0-0.7-0.2-0.7-0.7
	c0-3.7,0-7.3,0-11c0-0.6,0.2-0.7,0.8-0.7c3.1,0,6.1,0,9.2,0c0.6,0,0.9-0.2,0.9-0.8c0-3.1,0-6.1,0-9.2c0.1-3.6,0.9-7,3.1-9.9
	c2.4-3.2,5.6-4.8,9.5-5.5c3.4-0.6,6.8-0.2,10.2-0.1c0.8,0,1.6,0.1,2.5,0.2c0.2,0,0.5,0.3,0.5,0.5c0,3.5,0,7,0,10.5
	c0,0.5-0.3,0.5-0.6,0.5c-2.1,0-4.3,0-6.4,0c-0.7,0-1.4,0.1-2.1,0.2c-2.2,0.5-3.4,1.7-3.5,3.9c-0.2,3.1-0.1,6.3-0.1,9.5
	c0,0,0,0.1,0.1,0.2c0.2,0,0.5,0,0.8,0c3.5,0,7.1,0,10.6,0c0.9,0,0.8,0,0.7,0.8c-0.5,3.6-1,7.2-1.4,10.9c-0.1,0.6-0.3,0.7-0.9,0.7
	c-3,0-6.1,0-9.1,0c-0.2,0-0.5,0-0.9,0c0,0.3,0,0.6,0,0.9c0,10,0,20.1,0,30.1c0,0.3,0,0.6,0,0.9C34.9,70,30.7,70,26.4,70z"/>
</svg>
