<?xml version="1.0" encoding="utf-8"?>
<!-- Generator: Adobe Illustrator 19.0.1, SVG Export Plug-In . SVG Version: 6.00 Build 0)  -->
<svg version="1.1" id="Warstwa_1" xmlns="http://www.w3.org/2000/svg" xmlns:xlink="http://www.w3.org/1999/xlink" x="0px" y="0px"
	 viewBox="0 0 70 70" style="enable-background:new 0 0 70 70;" xml:space="preserve">
<style type="text/css">
	.st0{fill-rule:evenodd;clip-rule:evenodd;}
</style>
<path class="st0" d="M20.1,24.1c0.7,0.3,1.7,0.5,2.3,0.2c6.6-3.2,13.1-6.5,19.6-9.9c0.7-0.3,1.2-1.4,1.3-2.2C44,5.3,49.2,0.3,55.9,0
	c6.3-0.3,12,4.5,13,11.1c0.7,5-1,9.2-5.1,12.1c-4.2,3-8.9,3.5-13.5,0.9c-1.6-0.9-2.8-0.8-4.3,0c-6.3,3.3-12.7,6.4-19,9.7
	c-0.5,0.3-1.3,0.9-1.3,1.3c0.1,0.6,0.7,1.3,1.3,1.6c6.6,3.4,13.3,6.8,20,10.1c0.6,0.3,1.7,0,2.3-0.3c8.2-5,18.3-0.3,19.7,9.2
	c0.9,6.5-3.8,13.1-10.3,14.1c-7.1,1.2-13.8-3.2-14.8-10c-0.4-2.4-1.3-3.5-3.4-4.5c-6.2-2.9-12.3-6.1-18.3-9.2
	c-1.3-0.7-2.3-0.7-3.6,0C13.7,48.5,7.9,47.6,4,44c-3.8-3.5-5.1-9.4-3-14.3c2-4.8,6.8-7.9,12.1-7.8C13.2,21.7,17.8,23.2,20.1,24.1z"
	/>
</svg>
