<?xml version="1.0" encoding="utf-8"?>
<!-- Generator: Adobe Illustrator 19.0.1, SVG Export Plug-In . SVG Version: 6.00 Build 0)  -->
<svg version="1.1" id="Warstwa_1" xmlns="http://www.w3.org/2000/svg" xmlns:xlink="http://www.w3.org/1999/xlink" x="0px" y="0px"
	 viewBox="0 0 70 70" style="enable-background:new 0 0 70 70;" xml:space="preserve">
<style type="text/css">
	.st0{fill-rule:evenodd;clip-rule:evenodd;}
</style>
<path class="st0" d="M0,57.7c7.5,0.2,14.2-1.6,20.6-6.2c-6.5-1-11-4.1-13.3-10.3c1.9,0.1,3.6,0.4,5.8-0.4c-2.9-1-5.2-2.3-7-4.3
	c-2.3-2.5-3.5-5.5-3.9-8.8c-0.1-1.1,0.2-1.3,1.2-0.8c1.1,0.5,2.2,0.9,3.4,1.2c0.2,0.1,0.6,0,0.8-0.1c0.3-0.3,0-0.6-0.2-0.8
	c-0.4-0.4-0.8-0.8-1.1-1.1c-4.3-4.5-5.1-11.6-2-17c0.7,0,0.9,0.7,1.3,1.1c6.9,7.7,15.6,12.2,25.8,13.6c0.3,0,0.5,0,0.8,0.1
	c1.7,0.4,2.1-0.2,2-1.9c-0.5-5.3,1.5-9.7,5.8-12.9c5.5-4.2,13-3.9,18.3,0.6c0.9,0.8,1.7,1,2.9,0.7c2.4-0.7,4.8-1.7,7-2.8
	c0,2.1-0.9,3.5-4.9,7.5c2.4,0,4.4-1,7-1.7c-1.1,2.3-2.5,3.9-4.2,5.1c-2,1.5-2.5,3.2-2.7,5.7c-0.9,18.6-13.7,35.7-33.3,39.2
	c-10.3,1.8-20,0.3-29.1-4.9C0.5,58.1,0.3,57.9,0,57.7z"/>
</svg>
